<svg id="Icons" xmlns="http://www.w3.org/2000/svg" viewBox="0 0 36 36"><defs><style>.cls-1{fill:#e00;}</style></defs><title>Icons-Red_Hat-Software_and_Technologies-Automation-B-Red-RGB</title><rect class="cls-1" x="9.25" y="5.23" width="7.5" height="7.5" rx="0.75"/><rect class="cls-1" x="9.25" y="14.23" width="7.5" height="7.5" rx="0.75"/><rect class="cls-1" x="9.25" y="23.23" width="7.5" height="7.5" rx="0.75"/><path class="cls-1" d="M24,23.25a.76.76,0,0,0-.75.76A2.22,2.22,0,0,1,21,26.23h-.22l.72-.72a.75.75,0,0,0-1.06-1.06l-2,2a.83.83,0,0,0-.15.23.19.19,0,0,0,0,.07.58.58,0,0,0,0,.19s0,0,0,.07a.69.69,0,0,0,0,.25h0a.55.55,0,0,0,.14.22s0,0,0,0l2,2a.75.75,0,0,0,1.06,0,.75.75,0,0,0,0-1.06l-.72-.72H21A3.73,3.73,0,0,0,24.75,24v0A.74.74,0,0,0,24,23.25Z"/><path class="cls-1" d="M19,9.73h2A2.23,2.23,0,0,1,23.25,12a.74.74,0,0,0,.75.74.76.76,0,0,0,.75-.76A3.73,3.73,0,0,0,21,8.23H19a.75.75,0,0,0,0,1.5Z"/><path class="cls-1" d="M27,17.23h-.37a3.23,3.23,0,0,0-.24-.58l.26-.26a.75.75,0,0,0-1.06-1.06l-.26.26a3,3,0,0,0-.58-.24V15a.75.75,0,0,0-1.5,0v.37a3,3,0,0,0-.58.24l-.26-.26a.75.75,0,0,0-1.06,1.06l.26.26a3.23,3.23,0,0,0-.24.58H21a.75.75,0,0,0,0,1.5h.37a3,3,0,0,0,.24.59l-.26.26a.75.75,0,0,0,0,1.06.75.75,0,0,0,1.06,0l.26-.26a3,3,0,0,0,.58.24V21a.75.75,0,1,0,1.5,0v-.36a3,3,0,0,0,.58-.24l.26.26a.75.75,0,0,0,1.06,0,.75.75,0,0,0,0-1.06l-.26-.26a3,3,0,0,0,.24-.59H27a.75.75,0,0,0,0-1.5Zm-2.47,1.28a.63.63,0,0,1-.24.16.73.73,0,0,1-.58,0,.63.63,0,0,1-.24-.16.75.75,0,0,1,0-1.06.77.77,0,0,1,1.06,0,.75.75,0,0,1,0,1.06Z"/></svg>